<svg xmlns="http://www.w3.org/2000/svg" viewBox="75 215 350 72" width="350" height="72">
  <style>.l { fill: #fff; }</style>
  <!-- G mark -->
  <polygon class="l" points="130.6 240.8 137.1 247.2 137.1 258.5 118.1 277.4 106.8 277.4 87.8 258.5 87.8 247.2 94.2 240.8 80.8 227.4 93.1 227.4 100.4 234.6 112.4 222.6 121.6 231.7 115.4 237.8 112.4 234.8 94.5 252.8 112.4 270.8 130.4 252.8 124.5 246.9 117.8 253.7 105.5 253.7 131.8 227.4 144 227.4 130.6 240.8"/>
  <!-- GOW -->
  <path class="l" d="M186.5,261.7c-2.5,1.7-5.4,2.5-9.2,2.5-8.3,0-13.2-4.3-13.2-11.4s4.9-11.5,12.9-11.5,5.9.7,8.2,2.2l-1.6,4.9c-2.1-1.2-3.9-1.7-6.1-1.7-4.5,0-7.1,2.3-7.1,6.1s2.7,6.1,7.4,6.1,1.7,0,2.6-.3v-3.2h-4.7v-4.7h10.8v11Z"/>
  <path class="l" d="M189.6,252.7c0-6.9,4.9-11.5,12.3-11.5s12.3,4.5,12.3,11.5-4.8,11.5-12.3,11.5-12.3-4.5-12.3-11.5ZM207.8,252.7c0-3.6-2.3-6-5.9-6s-5.9,2.4-5.9,6,2.3,6,5.9,6,5.9-2.4,5.9-6Z"/>
  <path class="l" d="M249.3,241.6l-6.8,22.2h-5.9l-4.1-13.6-4.1,13.6h-6l-6.8-22.2h6.6l3.7,13.7,4.1-13.7h5.2l4.1,13.7,3.7-13.7h6.3Z"/>
  <!-- STUDIOS -->
  <path class="l" d="M261.5,260.9l1.4-2.4c2.5,1.9,5.8,3,9.3,3s7-1.4,7-4-2-3-7.2-3.4c-6.9-.5-9.6-2.2-9.6-6.2s3.6-6.7,9.5-6.7,6.6.9,9,2.7l-1.3,2.4c-2.1-1.6-4.8-2.4-8-2.4s-6.3,1.5-6.3,3.9,2,3,7.2,3.4c6.9.5,9.6,2.2,9.6,6.2s-3.6,6.8-10.1,6.8-8-1.2-10.7-3.3Z"/>
  <path class="l" d="M305.8,244.2h-8.9v19.6h-2.9v-19.6h-8.9v-2.5h20.7v2.5Z"/>
  <path class="l" d="M309.9,255.7v-14.1h2.9v13.6c0,4.1,2.5,6.3,7.4,6.3s7.4-2.1,7.4-6.3v-13.6h2.8v14.1c0,5.4-3.7,8.5-10.2,8.5s-10.3-3-10.3-8.4Z"/>
  <path class="l" d="M357.6,252.7c0,6.7-4.5,11.1-11.4,11.1h-9.9v-22.2h9.9c6.9,0,11.4,4.3,11.4,11.1ZM354.6,252.7c0-5.3-3.3-8.5-8.7-8.5h-6.6v17.1h6.6c5.4,0,8.7-3.3,8.7-8.5Z"/>
  <path class="l" d="M362.7,241.6h2.9v22.2h-2.9v-22.2Z"/>
  <path class="l" d="M370.7,252.7c0-6.9,4.8-11.5,12.1-11.5s12.1,4.6,12.1,11.5-4.8,11.5-12.1,11.5-12.1-4.6-12.1-11.5ZM391.9,252.7c0-5.3-3.6-8.8-9.1-8.8s-9.1,3.5-9.1,8.8,3.6,8.8,9.1,8.8,9.1-3.5,9.1-8.8Z"/>
  <path class="l" d="M398.4,260.9l1.4-2.4c2.5,1.9,5.8,3,9.3,3s7-1.4,7-4-2-3-7.2-3.4c-6.9-.5-9.6-2.2-9.6-6.2s3.6-6.7,9.5-6.7,6.6.9,9,2.7l-1.3,2.4c-2.1-1.6-4.8-2.4-8-2.4s-6.3,1.5-6.3,3.9,2,3,7.2,3.4c6.9.5,9.6,2.2,9.6,6.2s-3.6,6.8-10.1,6.8-8-1.2-10.7-3.3Z"/>
</svg>
